<svg xmlns="http://www.w3.org/2000/svg" width="1200" height="650" viewBox="0 0 1200 650">
  <defs>
    <linearGradient id="sky" x1="0" y1="0" x2="0" y2="1">
      <stop offset="0%" stop-color="#7cc6ff"/>
      <stop offset="100%" stop-color="#f9d27a"/>
    </linearGradient>
    <linearGradient id="ground" x1="0" y1="0" x2="0" y2="1">
      <stop offset="0%" stop-color="#c99b43"/>
      <stop offset="100%" stop-color="#8a631d"/>
    </linearGradient>
  </defs>
  <rect width="1200" height="440" fill="url(#sky)"/>
  <circle cx="1030" cy="90" r="55" fill="#ffd24d"/>
  <rect y="430" width="1200" height="220" fill="url(#ground)"/>
  <ellipse cx="600" cy="430" rx="430" ry="90" fill="#b07a2b" opacity="0.45"/>
  <ellipse cx="640" cy="370" rx="210" ry="85" fill="#d7a655"/>
  <ellipse cx="845" cy="355" rx="70" ry="55" fill="#d7a655"/>
  <ellipse cx="500" cy="400" rx="120" ry="40" fill="#d7a655"/>
  <ellipse cx="500" cy="470" rx="38" ry="90" fill="#d7a655"/>
  <ellipse cx="575" cy="475" rx="38" ry="90" fill="#d7a655"/>
  <ellipse cx="730" cy="475" rx="38" ry="90" fill="#d7a655"/>
  <ellipse cx="805" cy="475" rx="38" ry="90" fill="#d7a655"/>
  <path d="M430 360 C350 315, 250 290, 185 230" fill="none" stroke="#d7a655" stroke-width="24" stroke-linecap="round"/>
  <circle cx="865" cy="345" r="8" fill="#1f1f1f"/>
  <path d="M888 365 Q920 382 948 368" stroke="#1f1f1f" stroke-width="6" fill="none" stroke-linecap="round"/>
  <g fill="#2a1b00" opacity="0.75">
    <circle cx="620" cy="355" r="7"/><circle cx="650" cy="335" r="6"/><circle cx="680" cy="360" r="6"/>
    <circle cx="710" cy="340" r="7"/><circle cx="740" cy="360" r="6"/><circle cx="545" cy="360" r="6"/>
    <circle cx="515" cy="380" r="6"/><circle cx="770" cy="390" r="7"/><circle cx="830" cy="395" r="6"/>
    <circle cx="500" cy="450" r="7"/><circle cx="575" cy="450" r="7"/><circle cx="730" cy="450" r="7"/><circle cx="805" cy="450" r="7"/>
  </g>
  <rect x="25" y="25" width="460" height="72" rx="16" fill="rgba(0,0,0,0.45)"/>
  <text x="52" y="72" font-family="Georgia, serif" font-size="40" font-weight="700" fill="#ffffff">Cheeta observatiebeeld</text>
</svg>
